<?xml version="1.0" encoding="utf-8"?>
<!-- Generator: Adobe Illustrator 23.0.5, SVG Export Plug-In . SVG Version: 6.00 Build 0)  -->
<svg version="1.1" id="Bold" xmlns="http://www.w3.org/2000/svg" xmlns:xlink="http://www.w3.org/1999/xlink" x="0px" y="0px"
	 viewBox="0 0 512 512" style="enable-background:new 0 0 512 512;" xml:space="preserve">
<style type="text/css">
	.st0{fill:#FAFAFA;}
</style>
<polygon class="st0" points="256,512 352,512 459.1,380 454.3,74.4 139.9,77.3 149.6,424.4 "/>
<path d="M64,512h192V336h-64v-80h64v-64c0-53,43-96,96-96h64v80h-32c-17.7,0-32-1.7-32,16v64h80l-32,80h-48v176h96
	c35.3,0,64-28.7,64-64V64c0-35.3-28.7-64-64-64H64C28.7,0,0,28.7,0,64v384C0,483.3,28.7,512,64,512z"/>
</svg>
