<svg width="17" height="16" viewBox="0 0 17 16" fill="none" xmlns="http://www.w3.org/2000/svg">
<path d="M7.13581 13.5981C8.68235 13.5981 10.1041 13.0661 11.2384 12.184L14.9213 15.8666L16.1059 14.6821L12.423 10.9994C13.306 9.86429 13.838 8.44265 13.838 6.8962C13.838 3.20096 10.8312 0.194336 7.13581 0.194336C3.44038 0.194336 0.433594 3.20096 0.433594 6.8962C0.433594 10.5914 3.44038 13.5981 7.13581 13.5981ZM7.13581 1.8698C9.90802 1.8698 12.1625 4.12414 12.1625 6.8962C12.1625 9.66826 9.90802 11.9226 7.13581 11.9226C4.36361 11.9226 2.10915 9.66826 2.10915 6.8962C2.10915 4.12414 4.36361 1.8698 7.13581 1.8698Z" fill="#758387"/>
</svg>
