<?xml version="1.0" encoding="utf-8"?>
<!-- Generator: Adobe Illustrator 23.0.5, SVG Export Plug-In . SVG Version: 6.00 Build 0)  -->
<svg version="1.1" id="Bold" xmlns="http://www.w3.org/2000/svg" xmlns:xlink="http://www.w3.org/1999/xlink" x="0px" y="0px"
	 viewBox="0 0 512 512" style="enable-background:new 0 0 512 512;" xml:space="preserve">
<style type="text/css">
	.st0{fill:#FAFAFA;}
	.st1{fill:#1c2425;}
</style>
<polygon class="st0" points="61,142 115,68 252,16 405,68 489,194 486,324 406,435 271,484 141,457 30,484 53,373 21,292 30,197 "/>
<path class="st1" d="M373.5,305.2l-0.2,1.6c-46.9-23.4-51.8-26.5-57.9-17.4c-4.2,6.3-16.4,20.6-20.1,24.8c-3.7,4.2-7.4,4.5-13.8,1.6
	c-6.4-3.2-26.9-9.9-51.3-31.7c-18.9-17-31.7-37.8-35.4-44.2c-6.3-10.8,6.8-12.3,18.7-34.9c2.1-4.5,1-8-0.5-11.2
	c-1.6-3.2-14.3-34.6-19.7-47.1C188.2,134.4,183,136,179,136c-12.3-1.1-21.3-0.9-29.2,7.3c-34.4,37.8-25.7,76.9,3.7,118.4
	c57.9,75.8,88.7,89.7,145.2,109.1c15.2,4.8,29.1,4.2,40.1,2.6c12.2-1.9,37.7-15.4,43-30.4c5.4-15,5.4-27.5,3.8-30.4
	C384.1,309.7,379.9,308.1,373.5,305.2L373.5,305.2z"/>
<path class="st1" d="M437.8,73.6C273.7-85,2.3,30,2.2,253.7c0,44.7,11.7,88.3,34,126.8L0,512l135.1-35.2c168.6,91.1,376.8-29.9,376.9-222.9
	c0-67.8-26.5-131.5-74.6-179.4L437.8,73.6z M469.4,253.1C469.2,416,290.5,517.7,149.1,434.6l-7.7-4.6l-80,20.8L82.9,373l-5.1-8
	C-10.2,225,90.9,41.9,257.5,41.9c56.6,0,109.8,22.1,149.8,62.1C447.3,143.7,469.4,196.8,469.4,253.1L469.4,253.1z"/>
</svg>
