<svg width="24" height="23" viewBox="0 0 24 23" fill="none" xmlns="http://www.w3.org/2000/svg">
<path fill-rule="evenodd" clip-rule="evenodd" d="M11.7484 20.7934C9.46358 19.3873 7.33801 17.7323 5.40978 15.8581C4.05414 14.5084 3.02211 12.8629 2.39273 11.0478C1.26015 7.52664 2.58308 3.49561 6.28539 2.30265C8.23117 1.67625 10.3563 2.03427 11.9959 3.26471C13.6361 2.03576 15.7605 1.67787 17.7064 2.30265C21.4087 3.49561 22.7411 7.52664 21.6086 11.0478C20.9792 12.8629 19.9471 14.5084 18.5915 15.8581C16.6633 17.7323 14.5377 19.3873 12.2529 20.7934L12.0054 20.9474L11.7484 20.7934Z" stroke="#2E3C40" stroke-width="2.5" stroke-linecap="round" stroke-linejoin="round"/>
<path d="M15.936 6.2666C17.0574 6.62481 17.8541 7.63155 17.9537 8.81606" stroke="#2E3C40" stroke-width="2.5" stroke-linecap="round" stroke-linejoin="round"/>
</svg>
