<svg xmlns="http://www.w3.org/2000/svg" width="604" height="483.8" viewBox="0 0 604 483.8">
  <defs>
    <style>
      .cls-1 {
        fill: #ffdea9;
      }

      .cls-2 {
        fill: #ade2e4;
      }
    </style>
  </defs>
  <title>AboveFooter</title>
  <g id="Layer_2" data-name="Layer 2">
    <g id="Layer_1-2" data-name="Layer 1">
      <g>
        <path class="cls-1" d="M604,0V432.53c-64,.76-82.25,25.07-259.16,44.73C96.36,504.86,41.14,440.45,8.93,371.44S36.54,251.81,110.16,238,176.88,108,285,123C404.17,139.47,418.46,90.78,547.3,17.17,566.26,6.34,585.3,1.05,604,0Z"/>
        <path class="cls-2" d="M604,87V466.66c-78.62-5.85-157.6,0-244.48,9.74-131.23,14.73-229-42.92-258.44-103.57s40.33-97.62,30.67-148.58S181.09,95,245.72,101.52s141.4,64.14,206.85,36.82C511.91,113.57,553.91,70.49,604,87Z"/>
      </g>
    </g>
  </g>
</svg>
