<svg xmlns="http://www.w3.org/2000/svg" width="853.93" height="268.59" viewBox="0 0 853.93 268.59">
  <defs>
    <style>
      .cls-1 {
        fill: #bfbf91;
      }

      .cls-2 {
        fill: #fff;
      }

      .cls-3 {
        fill: #252946;
        opacity: 0.9;
      }
    </style>
  </defs>
  <title>MAPV2</title>
  <g id="Layer_2" data-name="Layer 2">
    <g id="Layer_1-2" data-name="Layer 1">
      <g>
        <rect class="cls-1" width="853.93" height="268.59"/>
        <path class="cls-2" d="M853.93,40.86v-10L812.67,0H799.3l11.1,8.3L798.54,28,757.14,0H735L709.71,45.51l-13.61-7.8L715.78,0h-9l-8.19,15.7-8.37-4.64L695.86,0h-11.2l1.78.85-3.25,6.33L670.25,0H653.77l25.68,14.25L667.93,35.4l-3.85-2.87V15.42L649.77,7.89l-12.5-7,.49-.89h-9.14L607.86,37.57,598,31.74l9.82-18.86.75.38L612.49,0h-8.35l-.54,1.83L599.94,0h-7.4l-11.7,21.62-6.52-3.85L583.82,0h-9.08l-30,56.13-12.39-6.85L559.31,0h-9.12l-8,14.55-15.1-8.5,3.24-6h-9.07l-1.14,2.12L516.39,0h-16.3l38.29,21.57L531.5,34.14,511,23.36,485.77,7.64,489.9,0h-9.1l-17,31.53-11.28-5.7L465.33,0h-8.94l-4.47,9L436,0H419.78l28.57,16.18-3,6.05L406.69,2.72,408.14,0h-9.07L381.84,32.16l-4.91-3.25,7.14-21.55L388.82,0H379.3l-.19.29L378.59,0H360.85l-19,33.28-16.76-9.7L338.23,0h-9.16L304.19,44.62,268.63,24.8,281.32,0h-9l-10.7,20.9L224.14,0H207.71l22.56,12.57-8.82,15.77-40-20.83L185.7,0h-9.2L154.35,39.06l-7.79-4.15L165.62,0H156.5l-17,31.14-9.07-4.83L144,0h-9L123.37,22.54l-6.79-3.62L126.9,0h-9.11l-8.27,15.15-7-3.75L108.81,0H99.66l-23,41.22.23.13-4.12,8.72-16-9.53L78.85,0H69.74L0,128.35v18l13.59,9.8L6.09,174l2,29.88,18.17,44.2-17,8.25L0,236v19.23l2.1,4.59-2.1,1v7.73H2.39L5.62,267l.82,1.57h9l-2.64-5.06,16.92-8.21,7.1,13.27H45.9l-1.53-2.85,24.72-9.1,5,7-11.6,5H82.77l3.59-1.54-9.7-13.59,6-2.74L92,268.59h9l-2.8-5.36L112,255.7l3.4,6.72-13.1,6.17h25.47l-1.38-2.5,42.85-20.19,34-61.81,16.48,9.11-39.5,69.11-12.31,6.28h30.3l-9.56-4.91,25.76-45.07,18,11.4-22.27,38.58h9.23l6.12-10.6,19,10.6h16.39l-31.36-17.53,3.65-6.31,38.42,21.73-1.19,2.11h9.18l18.15-32.32,8.66,4.78-15.13,27.54h9.13l13-23.67L327.85,253l-9.37,15.62h9.33l7.05-11.75,21.27,11.75h23.33l29.35-52.1,16,8.68L400,268.59h9.22l1.75-3.06,5.58,3.06h25.8l1.9-3.35,5.92,3.35H466.4L463.51,267l28.39-53.23,7.56,4.61-29,50.25h9.24l9.51-16.47,6.32,4.54-7.68,11.93h9.51l28.19-43.76-15.22-9.26L517,204l22.53,13.51-28.87,51.11h9.19l26.54-47,21.84,13.1-5.63,10.07-16-8.64L529,268.59h9.1L549.83,247l8.87,4.79-9.42,16.84h9.16l7.3-13,5.47,2.95L566,268.59h9l3.25-6.29,5.25,2.84-1.6,3.45h8.82l.57-1.23,18.18-.34-.11,1.57h8l.13-1.71,5.27-.1.07,1.81h8L630,245.08l13.54-1.63,2.26,25.14h8l-.67-7.44,30.52-56.65L784,261.65l-4.1,6.94h9.29L853.93,159V143.25l-1.17,2-17.49-9.84,18.66-36.11V81.87L828.3,131.46l-8.59-4.83L848.43,71l5.5,4.49V65.16l-31-25.3,8.91-15.52Zm-59.52-6-26.52,44-8-4.57,26.37-44.93Zm-42.5,86,10.44-17.32,41,23.07-10.13,17.49ZM789.18,151l-20.91,35.64L760,180.86l20.09-35Zm-57.54-12-7.15-4.38,31.37-53.44,7.9,4.53ZM540.89,94l-1.95,3.51c-7.59,13.6-11.58,21-13.64,25.31l-5.63-2.91,18.6-34.77,20.27,12.07-3.26,4.86Zm9.92,14.74L537.24,129l-4.83-2.49c2.19-4.4,6.86-13.07,11.57-21.58Zm-10.9,30.62,25.51-38,5.44,3.24-27.12,49.1L511.18,135.8,515.9,127ZM648.57,70.9l-9.72,17.83L615.46,76.1l10.59-18.5ZM630,50.65l3.43-6,23,11.7-4.1,7.52Zm5,45.11-4.32,7.92L592.24,82.41l4.15-7.51Zm-8.15,14.94-7.37,13.52-37.89-22.56,6.76-12.25Zm-11.2,20.55-1.81,3.32-33.27-16.63-23,43.33-6.83-3.75,27-48.86Zm-24,31.12,10-25L610,141.6,589.7,178.89l-25.1-13.77,5.46-10.29Zm-17.8-14.69L584,128.58l10.45,5.22-7.38,18.49Zm-27,16.84,46,25.25,41-75.2L644,120.19l-46,88.22-57.61-32.12ZM661,105.07l11.66,7.14-32.44,58.3-10.3-5.87ZM680.2,138,672,151.08l-9.37-4.48,7.75-13.94ZM658.73,153.6l34.41,16.46-4.48,8.3-32.31-20.49Zm20.53,1,8-12.71,18.84,10.26-8.63,11.16ZM702,170.45,713.21,156l6.17,3.36-16.79,27.86-7.15-4.54Zm-27.74-44.78,5.16-9.28,48.08,29.45-4,6.63ZM732,106.11l-3.89,6.62L692.51,92.88l3.89-7C705.82,90.52,724.35,101.54,732,106.11ZM700.29,78.9l3.2-5.75,35.83,20.39L736,99.2C728.39,94.63,710.31,83.88,700.29,78.9ZM724,119.63l-6.34,10.8-34.34-21,5.29-9.52ZM743.82.66l35.81,24.19L774.88,33,739.12,9.1Zm-8.6,15.45,35.6,23.75-8.11,13.83L726.35,32.06Zm-12.76,23,36.2,21.53-5.7,9.7-36.31-20.8Zm-9.7,17.42,36.16,20.71-5.55,9.45-36-20.49Zm-6.94-4L676.5,105.21,664.66,98,692.4,44.81ZM686.45,18.13l8.41,4.67L676.69,57.62l-9.22-4.68ZM673,64.71,647.74,113.1l-10-5.55L663.64,60Zm-8.93-22.22-3.73,6.83L637.43,37.7l4.2-7.34L658,38ZM649.42,16.74l6.66,3.51v8l-10.47-4.88Zm-16-8.85,9,5L623.13,46.58l-8.37-4.94ZM610.89,48.65l8.27,4.88L608.42,72.3l-8.16-4.41ZM597.47,7.71l3.18,1.59-9.56,18.37-3.35-2ZM570.54,24.83l6.5,3.83-7.6,14.05,8.74,6.73L575,58.31,557.8,48.64ZM554,55.7l25.28,14.22,8.37-23.27-8-6.13,4.22-7.79L604,44.58l-18.76,34L551.72,60ZM548,67.06l33.42,18.48-6.64,12L542.05,78.1Zm-7-3.87L500.4,139l39.48,21.67-6.48,11.72-52.47-29.24L528.49,56.3ZM269.47,195.73l-6.7,12.13-32.11-17.74,5.93-10.39Zm-28.9-23,18.8-32.89,16.47,10.32-17.94,31Zm24.54,11.94,17.53-30.29,8.16,5-17.36,29.31ZM375.73,84.5,365.83,79l9.24-17.24,10.23,5.92C381.28,74.87,377.89,80.87,375.73,84.5Zm16.5-12.83,38,22L421.41,110,382.72,88.4C385,84.58,388.36,78.6,392.23,71.67Zm25.22,45.25-8.92,14.91L354.74,99.28,362,86ZM350.89,106.3l12.56,7.6-16.58,30.48-12.73-7.55Zm-23.64,26.45-8.39-5,17.43-29.43,7.63,4ZM361.34,153l-7.58-4.5,16.54-30.41,7.4,4.48Zm23.21-26.28,5,3-17.22,29.77L368.23,157Zm-34.62,28.81,7.62,4.52-15.86,29.51-7.56-5Zm14.51,8.6,3.92,2.32-17,29.39-2.94-1.9Zm10.8,6.4,7.5,4.45L365,204.58l-6.9-4.45Zm4-6.92,17.18-29.71,8,4.84-17.58,29.37ZM347.77,95.35l-11-5.8-12.46-7.06,7.66-13.24L355,82.12Zm-18.5-.83L312,123.7l-8.61-5.1,16.89-29.18ZM307.9,130.58l-13,22-8.23-5.07,12.72-22ZM278.48,196l13.9-23.48,9.48,6.57-21.22,38.68-10.87-6Zm18-30.38,18.32-30.92,8.61,5.11L305.73,172Zm33.82-21.73,12.76,7.56-24.74,45.48-13-7.46Zm0,47.76L344.6,201l0,0,16.27,10.48-4.38,7.32-31.25-17.9Zm31.16,34.5L389.62,179l10.74,6.36L367.3,242.07l-11.07-5.53Zm32.28-54,17.53-29.31,10.28,6.22-17.15,29.41Zm34.66-19,4.67,2.83-16.23,29.82-5.56-3.3Zm-13-17.23,9.07-15.16L470,146.23l-9.71,17Zm13-22.11,8.76-16.21,45.24,26.18L474,139.25ZM441,90.61l4.73-8.75,23.52,13.8-4.47,8.71Zm86.7-49.45-41.41,75.65-14.57-8.43,39.05-76.13ZM482,14.69l21.81,13.59-3.87,7.54L477.64,22.68Zm-8.12,15L496.24,43,472.86,88.53l-8.11-4.76,19.81-37.51-14-10.53Zm-7.09,13.12,7.55,5.69L457.84,79.71l-8.36-4.9ZM448.93,33l11,5.57-26,48-9.11-5.27Zm-7.14-3.61L418,77.32l-4.12-2.39c5.84-10.22,17.65-35.37,23.43-47.81Zm-11.66-5.87C422.09,40.83,411.39,63.13,407,71l-10.87-6.29c9.6-17.32,20.68-37.67,25-45.69ZM402.91,9.78,414,15.38c-7,12.83-16.64,30.54-24.81,45.29l-10.34-6ZM368.17,3.32l7.43,4.17L370,24.35,360,17.7ZM356,24.66l22.07,14.58-6.13,11.44-23.16-13.4Zm-34.8,5.91,47,27.16-9.3,17.36L311.18,48.52ZM307.26,55.49,325,65.35l-45.1,77.92-16.51-10.34,11.26-19.71h0Zm-7-3.89-28.74,50.83-18-9.85,28.22-51.32Zm-158.5,164L128,219.41l-4.17-9.73,7.53-3.66,15.83-28.32,11.4,6Zm23.85-28.19,7.45,3.94-19.86,31.76-2.12,1.22-2.17-5.14Zm-40.07,12.47L78.31,222.85l-11.18-42.5,51.28-93.89,53.35,30.8Zm-59.89,6.27-15,5.82-4.82-25.36,11.62-29.29,10,5.79-8.82,16.16ZM75.12,89.67l5.72,4L62.67,128.81l-6.58-4.2ZM49.32,120.3l-6.5-4.14L61.71,80.28l6.82,4.77ZM87.64,97.94l11.73,6.69L71.25,156.12,60.7,150Zm72.75-9.73L155.1,98.4l-32.86-19,5.29-9.67Zm-.93-9.7L171.73,57.4l4.74,2.52L164.23,81.19Zm2.58,23.9,7.19-13.87,14.3-24.85,14,7.46-21.87,39.12Zm65-15.19-8.58,15.36-6.25-3.41,8.72-15.28Zm-2.14-10.28,16.37-28.67L247,51.45l-16.1,28.79ZM205.17,95.33l-9.19-5L204.57,75l9.32,5.1Zm-13.09,2,9.12,5-20.6,36.09-8.8-4.78Zm16.14,8.82,6.31,3.44-20.26,36.23-6.64-3.61ZM234,91.06l8.6,4.7-32.3,58.75-9-4.91Zm3.91-7L254,55.31l8.32,4.58L246.49,88.75Zm-.7-67.61,37.49,20.89-8.53,15.52-37.7-20.76ZM224.6,39.11l9.64,5.3L217.86,73.1,208.47,68Zm-7-3.78L201.43,64.17l-13.9-7.41,16.41-28.52ZM196.84,24.55,180.46,53l-4.71-2.52,16.46-28.33ZM177.49,14.47l7.62,4L168.68,46.71l-7.27-3.88Zm-20,35.32,7.2,3.84-12.18,21-6.89-3.87Zm-14.74-7.86L150.4,46,138.62,66.81l-7.26-4.07Zm-16-8.51,8.89,4.74L124.39,58.82l-8.3-4.66Zm-14-7.48,7,3.71-10.6,20.59-7.36-4.13ZM98.58,18.39l7.11,3.79-10.92,20-7.19-4ZM83.93,45.28l36.62,20.56-5.21,9.54L79.73,54.18ZM53,47.57l58.5,34.84-8.3,15.2L88.15,89,58.87,68.52,36.05,111.85l-13.36-8.51ZM18.86,110.39,59,135.94,53.77,146,12.48,122.14ZM3.36,138.92l5.3-9.75,41.76,24.15-4.05,10.21L35,158.19l-14.39-6.88ZM43,215l-5.62,2.18-3.46-8.21-3.63-21.17,5.58-20.29L43.41,171,37.5,185.87Zm-18.2,8.51L16,202.05,14.2,175.36l6.37-15.18,8,3.82-6.42,23.34,4.08,23.83,3.93,9.33Zm8.69,21.13-5.62-13.68,9-5L67.71,214,71,226.41Zm35.55,3.54-28.5,10.49-3.64-6.79,37-18L79,243.62Zm25.48,8L81.13,230.38l14.49-7,12.77,25.22Zm28.1,2.88-19.82-39.16,13.76-6.68L133.9,253.7Zm8.48-32.17,11.06-3,1.93,4.57-9.9,5.69Zm10,23.45-3.76-8.8,10.56-6.08,6,8.86Zm22.34-10.52-2.23,1-6.36-9.41,4.05-2.33,21.23-34,6.08,3.21Zm26.63-48.44L151,170.72l6.6-11.81,38.57,21.31Zm10-18.12-38.52-21.28,6.34-11.36,38.6,21Zm7,3.87,42.59-77.49,17.92,9.8-43.92,76.86Zm68.33,82.43-38.34-21.69,2.18-3.76L277.93,255ZM281.85,248l-42.11-22.79-21.39-13.58,8.34-14.59,63.94,35.33Zm5.79-26.43,13.8-25.16,51.22,29.34L349.07,233l-.15-.08L340.79,251Zm83.21,46-23-12.72,5-11.09L377.35,256Zm10.43-18.52-6.81-3.4,21.16-36.3,6.15,3.33Zm24.43-43.34-6-3.27,7.57-13,5.72,3.39Zm7,3.8,9.13-16.21h0l1.89-3.35,0,0,16.19-29.76,16.45,10-27.54,48.09Zm20.41,59-18.22-10L477,150.13,494.7,160Zm55.67-66.07L456.55,263l-8.37-4.74,40.44-71.34,21.52,12.91-6.67,11.56Zm25.53,24.9-14.51,22.53-6.63-4.77L506.3,222.5Zm29.12-16.89L492.57,180l9.12-16.1,51.81,28.88Zm46.22,48.87-20-10.81,5.46-9.75L593,249.54l29-3.5.48,12.75Zm5-18.11-44.41-26.64,10.16-18,40.8,22.75.85-1.63L641,215.55l1.79,19.92Zm48.06-33.84-36.35,2.08,19.71-37.77,32.42,18.47Zm9,39.27-3.05-34,16.91-18.46,11,6.27Zm28.67-53.21-33.39-19,5.34-9.59,32.4,20.54Zm13.61,7.76-6.66-3.8,4.17-7.74,6.83,4.33Zm7,4,46.71-77.51,10.82,6.09-45.88,78.06Zm18.6,10.6,45.9-78.09,7.59,4.27L728,220.55Zm15.28,8.7L756,187.83l8.17,5.73-20.94,35.69Zm15.27,8.7,45.93-78.28,11.41,6.42-45,78.89Zm37.83,21.55L769.51,244.2l45-78.92,19.8,11.14Zm60.64-102.64L838.4,169.53,800.18,148l10.13-17.5Zm-6.6-86.3L812.73,122.7l-8.54-4.8,30.9-57.79ZM828.77,55l-31.55,59-12.73-7.16,34.4-59.92Zm-51.25,47.94-11-6.21,50.36-83.56,8.55,6.39Z"/>
        <rect class="cls-3" width="853.93" height="268.59"/>
      </g>
    </g>
  </g>
</svg>
